Land_normalized_pl10_filtered_grf
version=1
nRows=15
nColumns=37
inDegrees=yes
endheader
time		1_ground_force_vx		1_ground_force_vy		1_ground_force_vz		1_ground_force_px		1_ground_force_py		1_ground_force_pz		1_ground_torque_x		1_ground_torque_y		1_ground_torque_z		2_ground_force_vx		2_ground_force_vy		2_ground_force_vz		2_ground_force_px		2_ground_force_py		2_ground_force_pz		2_ground_torque_x		2_ground_torque_y		2_ground_torque_z		3_ground_force_vx		3_ground_force_vy		3_ground_force_vz		3_ground_force_px		3_ground_force_py		3_ground_force_pz		3_ground_torque_x		3_ground_torque_y		3_ground_torque_z		4_ground_force_vx		4_ground_force_vy		4_ground_force_vz		4_ground_force_px		4_ground_force_py		4_ground_force_pz		4_ground_torque_x		4_ground_torque_y		4_ground_torque_z		
0.691167		-15.128270		907.265793		229.441516		0.111072		0.000000		0.237009		-0.418661		25.109896		6.350154		0.974026		899.590841		285.270493		-0.108754		0.000000		0.206836		-0.010797		-9.932684		-3.148257		21.957250		1.774437		0.302575		0.375952		1.311573		1.914038		-0.101736		-0.008222		-0.001402		-18.475141		-0.632907		1.739895		-0.265126		1.310027		1.924793		0.019384		0.000664		-0.001825		
0.694096		-20.047214		884.387910		219.515166		0.111971		0.000000		0.236864		-0.533762		23.548180		5.844947		7.773690		881.637506		243.864388		-0.111426		0.000000		0.212803		-0.122126		-13.833067		-3.825892		22.093430		1.859417		0.283278		0.375971		1.311556		1.914035		-0.101698		-0.008559		-0.001304		-18.426409		-0.723887		1.764933		-0.265106		1.310034		1.924801		0.018788		0.000738		-0.001799		
0.697025		-25.188089		860.905019		209.786383		0.113410		0.000000		0.237922		-0.645649		22.067969		5.377554		23.037483		864.770765		213.397252		-0.116101		0.000000		0.217666		-0.386714		-14.517062		-3.582359		22.174057		1.901504		0.264233		0.375993		1.311537		1.914031		-0.101433		-0.008698		-0.001208		-18.463140		-0.815710		1.794437		-0.265089		1.310039		1.924813		0.017882		0.000790		-0.001738		
0.699955		-30.309203		836.347925		201.502598		0.115021		0.000000		0.239454		-0.746701		20.604766		4.964341		40.019457		847.457324		197.547209		-0.120735		0.000000		0.220499		-0.598191		-12.669670		-2.953409		22.180467		1.898177		0.253166		0.376023		1.311519		1.914028		-0.101228		-0.008663		-0.001155		-18.574488		-0.873106		1.828655		-0.265070		1.310042		1.924829		0.016636		0.000782		-0.001638		
0.702884		-35.184975		810.068069		195.529822		0.116348		0.000000		0.240408		-0.827656		19.056068		4.599640		52.960331		829.068382		194.727571		-0.123889		0.000000		0.221116		-0.628987		-9.849329		-2.313262		22.124988		1.864119		0.259032		0.376058		1.311507		1.914029		-0.101356		-0.008540		-0.001186		-18.729821		-0.871252		1.872202		-0.265049		1.310043		1.924845		0.015097		0.000702		-0.001509		
0.705813		-39.680344		781.804707		191.840406		0.117067		0.000000		0.239943		-0.883606		17.410304		4.272128		59.191885		810.064738		200.196438		-0.125050		0.000000		0.219851		-0.543645		-7.440909		-1.838734		22.040684		1.819905		0.287751		0.376098		1.311503		1.914035		-0.101859		-0.008410		-0.001330		-18.886811		-0.806564		1.931449		-0.265023		1.310042		1.924864		0.013499		0.000577		-0.001380		
0.708742		-43.692955		752.052179		189.744803		0.117132		0.000000		0.237874		-0.917398		15.791289		3.984131		59.574368		791.790163		208.693737		-0.124518		0.000000		0.217437		-0.456217		-6.063459		-1.598071		21.969031		1.782171		0.337426		0.376142		1.311504		1.914045		-0.102468		-0.008312		-0.001574		-19.005163		-0.697657		2.007462		-0.264994		1.310040		1.924883		0.012246		0.000450		-0.001294		
0.711672		-47.136007		722.019264		188.610214		0.116746		0.000000		0.234709		-0.936287		14.342362		3.746551		57.468850		775.837439		216.257180		-0.123158		0.000000		0.214780		-0.411666		-5.557531		-1.549096		21.950230		1.760403		0.395104		0.376188		1.311511		1.914058		-0.102696		-0.008237		-0.001849		-19.059669		-0.576301		2.092080		-0.264961		1.310036		1.924904		0.011756		0.000356		-0.001290		
0.714601		-49.975644		693.304881		188.312945		0.116217		0.000000		0.231307		-0.945392		13.115531		3.562361		56.811147		763.415354		220.849779		-0.122023		0.000000		0.212633		-0.398234		-5.351415		-1.548113		22.010152		1.758513		0.439028		0.376235		1.311520		1.914070		-0.102083		-0.008156		-0.002036		-19.047812		-0.474372		2.169712		-0.264929		1.310030		1.924925		0.012226		0.000304		-0.001392		
0.717530		-52.233480		667.543656		189.101238		0.115803		0.000000		0.228427		-0.945473		12.083204		3.422911		60.175882		755.111082		222.050651		-0.121901		0.000000		0.211406		-0.392412		-4.924256		-1.448043		22.144176		1.777531		0.447281		0.376280		1.311529		1.914081		-0.100466		-0.008064		-0.002030		-18.988648		-0.413425		2.222362		-0.264899		1.310023		1.924944		0.013495		0.000294		-0.001579		
0.720460		-53.961263		646.186399		191.139492		0.115644		0.000000		0.226490		-0.939169		11.246601		3.326691		67.718471		750.959555		220.333267		-0.122994		0.000000		0.211181		-0.370465		-4.108515		-1.205453		22.310780		1.817309		0.408853		0.376324		1.311536		1.914087		-0.098141		-0.007994		-0.001798		-18.911580		-0.400875		2.237149		-0.264875		1.310017		1.924961		0.015084		0.000319		-0.001784		
0.723389		-55.241283		630.300580		194.250373		0.115755		0.000000		0.225557		-0.934497		10.662613		3.286063		77.428038		750.533008		216.407970		-0.124912		0.000000		0.211787		-0.321219		-3.114296		-0.898006		22.445994		1.876144		0.330479		0.376362		1.311539		1.914089		-0.095763		-0.008005		-0.001410		-18.840701		-0.431631		2.212938		-0.264857		1.310013		1.924975		0.016400		0.000376		-0.001926		
0.726318		-56.212028		620.429238		198.015942		0.116075		0.000000		0.225426		-0.937099		10.343068		3.301083		86.536008		753.105774		210.841478		-0.127002		0.000000		0.212907		-0.266267		-2.317635		-0.648890		22.494068		1.948589		0.234641		0.376390		1.311539		1.914088		-0.094003		-0.008143		-0.000980		-18.784534		-0.492198		2.162463		-0.264849		1.310011		1.924985		0.016983		0.000445		-0.001955		
0.729247		-57.037078		616.548898		201.967842		0.116508		0.000000		0.225727		-0.941654		10.178936		3.334389		93.063211		757.879215		204.052746		-0.128731		0.000000		0.214205		-0.244276		-1.989339		-0.535620		22.432959		2.022235		0.151176		0.376407		1.311537		1.914086		-0.093210		-0.008402		-0.000628		-18.737864		-0.564893		2.107851		-0.264849		1.310012		1.924995		0.016709		0.000504		-0.001880		
0.732177		-57.813295		618.173088		205.641822		0.116944		0.000000		0.226074		-0.936513		10.013752		3.331175		96.595921		764.159261		196.522676		-0.129911		0.000000		0.215441		-0.268550		-2.124447		-0.546332		22.281112		2.076568		0.106106		0.376414		1.311532		1.914080		-0.093293		-0.008695		-0.000444		-18.689337		-0.632065		2.070706		-0.264861		1.310016		1.925009		0.015819		0.000535		-0.001753		
